<?xml version="1.0" encoding="UTF-8" standalone="no"?>
<!DOCTYPE svg PUBLIC "-//W3C//DTD SVG 20010904//EN"
              "http://www.w3.org/TR/2001/REC-SVG-20010904/DTD/svg10.dtd">

<svg xmlns="http://www.w3.org/2000/svg"
     width="0.713542in" height="0.786458in"
     viewBox="0 0 274 302">
  <path id="Selection"
        fill="none" stroke="black" stroke-width="1"
        d="M 130.00,30.71
           C 130.00,30.71 116.00,31.29 116.00,31.29
             80.36,35.67 47.30,56.82 29.23,88.00
             21.50,101.35 14.19,121.47 14.00,137.00
             14.00,137.00 14.00,158.00 14.00,158.00
             14.09,165.60 15.81,171.79 17.86,179.00
             28.50,216.39 56.10,245.37 93.00,257.67
             103.41,261.14 116.00,263.87 127.00,264.00
             144.07,264.20 162.36,260.78 178.00,253.83
             216.67,236.65 246.50,194.84 247.00,152.00
             247.33,123.13 239.93,98.09 222.11,75.00
             210.47,59.90 198.68,51.36 182.00,42.64
             164.70,33.59 149.26,31.13 130.00,30.71 Z
           M 117.00,41.14
           C 117.00,41.14 136.00,41.14 136.00,41.14
             146.87,41.02 155.78,43.23 166.00,46.67
             212.53,62.31 241.00,108.68 236.17,157.00
             236.17,157.00 234.49,171.00 234.49,171.00
             223.69,220.84 178.29,254.58 128.00,254.00
             113.66,253.83 91.55,248.33 79.00,241.48
             74.42,238.98 68.31,234.30 64.00,231.15
             59.22,227.66 54.35,224.11 50.37,219.68
             47.20,216.14 44.77,211.96 42.17,208.00
             42.17,208.00 33.62,194.00 33.62,194.00
             13.60,149.19 24.40,93.66 64.00,63.23
             81.12,50.08 95.86,44.51 117.00,41.14 Z
           M 107.00,120.00
           C 102.34,120.38 87.63,122.76 84.39,125.56
             81.04,128.45 78.71,136.70 76.15,139.73
             73.46,142.91 66.05,144.69 62.00,145.86
             59.64,146.54 53.06,148.39 51.24,149.55
             49.65,150.57 48.24,152.55 50.42,153.90
             52.85,155.41 61.16,152.39 64.00,151.58
             67.46,150.59 77.04,148.20 79.45,146.19
             82.58,143.57 85.09,134.27 89.38,130.51
             92.00,128.20 96.62,127.64 100.00,127.00
             96.41,133.67 95.67,133.52 91.90,139.00
             82.19,153.11 66.94,175.42 63.24,192.00
             59.53,208.61 68.50,221.03 86.00,213.73
             96.02,209.55 101.26,201.28 108.00,198.00
             109.82,207.72 120.18,231.05 133.00,226.99
             143.43,223.70 149.65,207.60 153.00,198.00
             153.00,198.00 169.00,210.64 169.00,210.64
             179.93,217.80 197.05,219.45 197.96,202.00
             198.46,192.36 194.48,182.46 190.25,174.00
             181.88,157.29 170.39,142.44 160.00,127.00
             163.26,127.61 169.02,128.36 171.45,130.56
             174.55,133.38 177.89,143.51 181.27,146.30
             184.16,148.69 191.24,150.12 195.00,151.15
             197.98,151.97 205.35,154.58 207.94,154.56
             209.84,154.54 211.97,153.60 210.83,151.33
             209.66,149.01 205.31,148.00 203.00,147.28
             198.69,145.95 188.26,143.26 185.22,140.57
             180.23,136.15 180.26,126.94 173.90,124.26
             169.53,122.42 156.17,121.41 154.23,117.73
             151.35,112.23 162.01,108.24 163.77,103.83
             165.31,99.97 158.82,88.55 159.36,84.00
             159.96,78.88 167.98,75.91 169.83,71.06
             170.97,68.08 168.61,66.71 165.00,68.74
             162.93,69.90 153.87,77.42 152.78,79.29
             150.00,84.06 158.16,95.37 156.46,100.99
             155.43,104.41 150.88,107.17 148.00,109.00
             148.00,109.00 147.00,108.00 147.00,108.00
             148.24,105.63 150.09,102.59 150.59,100.00
             152.76,88.88 138.00,83.84 134.73,79.91
             133.42,78.34 132.82,73.91 130.27,73.55
             127.55,73.73 128.26,77.13 124.73,80.05
             118.00,85.60 108.69,88.88 110.21,100.00
             110.21,100.00 113.00,109.00 113.00,109.00
             111.23,108.07 109.61,107.18 107.95,105.95
             96.99,97.43 111.33,88.14 107.95,80.00
             106.61,77.00 98.92,70.76 96.00,69.04
             94.28,68.03 90.63,66.67 90.63,70.11
             90.63,74.03 99.10,78.54 100.89,82.28
             103.06,86.86 95.45,97.69 96.78,103.00
             98.60,110.23 107.57,108.79 107.00,120.00 Z" />
</svg>
